# xmcd
#
# Track frame offsets:
#	150
#	16685
#	34335
#	53522
#	74132
#	91280
#	107950
#	127512
#	147802
#	166037
#	182082
#
# Disc length: 2701 seconds
# Revision: 0
# Processed by: cddbd v1.5.2PL0 Copyright (c) Steve Scherf et al.
# Submitted via: dBpowerAMP V12.0
#
DISCID=880a8b0b
DTITLE=Johnny Rawls - Here We Go [dBP]
DYEAR=1996
DGENRE=Blues
TTITLE0=Here We Go
TTITLE1=Old Flame
TTITLE2=I Would Be Nothing
TTITLE3=Don't Worry About It
TTITLE4=Working My Way Back to You
TTITLE5=Sweet Woman
TTITLE6=What a Night
TTITLE7=I Got a Problem
TTITLE8=Gonna Put You Down
TTITLE9=Candy Man
TTITLE10=I Feel So Good
EXTD=
EXTT0=
EXTT1=
EXTT2=
EXTT3=
EXTT4=
EXTT5=
EXTT6=
EXTT7=
EXTT8=
EXTT9=
EXTT10=
PLAYORDER=
